<svg width="24" height="24" viewBox="0 0 24 24" fill="none" xmlns="http://www.w3.org/2000/svg">
<g id="social/apple">
<path id="path4" d="M20.6227 17.5324C20.2996 18.2735 19.917 18.9558 19.4738 19.583C18.8697 20.4381 18.3751 21.03 17.9938 21.3587C17.4029 21.8982 16.7697 22.1745 16.0917 22.1902C15.605 22.1902 15.018 22.0527 14.3348 21.7738C13.6492 21.4962 13.0192 21.3587 12.4432 21.3587C11.8391 21.3587 11.1911 21.4962 10.4981 21.7738C9.80402 22.0527 9.24486 22.1981 8.81735 22.2125C8.16718 22.24 7.51913 21.9558 6.87226 21.3587C6.45939 21.0012 5.94297 20.3883 5.32433 19.5202C4.66057 18.593 4.11488 17.518 3.68737 16.2923C3.22952 14.9684 3 13.6864 3 12.4453C3 11.0236 3.30945 9.79738 3.92928 8.76982C4.41642 7.94446 5.06447 7.29338 5.87557 6.81542C6.68666 6.33746 7.56305 6.09389 8.50684 6.07831C9.02326 6.07831 9.70047 6.23689 10.542 6.54855C11.3812 6.86125 11.9201 7.01983 12.1563 7.01983C12.3329 7.01983 12.9315 6.83441 13.9463 6.46474C14.9059 6.12192 15.7158 5.97997 16.3793 6.03588C18.1772 6.17993 19.5279 6.88351 20.4262 8.15109C18.8183 9.11828 18.0229 10.4729 18.0387 12.2108C18.0532 13.5644 18.5479 14.6908 19.52 15.5852C19.9606 16.0003 20.4526 16.3211 21 16.5489C20.8813 16.8907 20.756 17.2181 20.6227 17.5324ZM16.4993 1.42441C16.4993 2.48536 16.1089 3.47597 15.3306 4.39287C14.3915 5.48289 13.2555 6.11275 12.0236 6.01336C12.0079 5.88608 11.9988 5.75212 11.9988 5.61135C11.9988 4.59283 12.4454 3.50282 13.2386 2.61158C13.6346 2.16034 14.1382 1.78513 14.7489 1.48582C15.3583 1.19098 15.9348 1.02792 16.4769 1C16.4927 1.14183 16.4993 1.28368 16.4993 1.42439V1.42441Z" fill="white"/>
</g>
</svg>
