<svg width="19" height="19" viewBox="0 0 19 19" fill="none" xmlns="http://www.w3.org/2000/svg">
<path d="M18.4998 9.50331C18.4998 8.87184 18.4492 8.23695 18.3413 7.61572H9.68115V11.1929H14.6404C14.4346 12.3466 13.7734 13.3672 12.8051 14.0158V16.3368H15.7638C17.5012 14.7189 18.4998 12.3296 18.4998 9.50331Z" fill="#2888F1"/>
<path d="M9.68123 18.5795C12.1575 18.5795 14.2457 17.7568 15.7673 16.3369L12.8086 14.0158C11.9854 14.5824 10.9227 14.9033 9.6846 14.9033C7.28932 14.9033 5.2584 13.2683 4.5297 11.0701H1.47656V13.4628C3.03518 16.5997 6.20976 18.5795 9.68123 18.5795Z" fill="#31AA5D"/>
<path d="M4.52643 11.0701C4.14183 9.91637 4.14183 8.66708 4.52643 7.51337V5.12061H1.47667C0.174445 7.74548 0.174445 10.838 1.47667 13.4628L4.52643 11.0701Z" fill="#FFBA35"/>
<path d="M9.68123 3.67681C10.9902 3.65633 12.2553 4.15468 13.2033 5.06946L15.8246 2.41728C14.1648 0.840312 11.9618 -0.0266808 9.68123 0.000626005C6.20976 0.000626005 3.03518 1.98037 1.47656 5.12066L4.52632 7.51342C5.25165 5.31181 7.28595 3.67681 9.68123 3.67681Z" fill="#F23D3A"/>
</svg>
